<?xml version="1.0" encoding="UTF-8" standalone="no"?>
<svg
   width="1200"
   height="1200"
   viewBox="0 0 1200 1200"
   version="1.1"
   id="svg19"
   sodipodi:docname="Be-Home-Coffee-Primary-Matched.svg"
   inkscape:version="1.4.4 (dcaf3e7, 2026-05-05)"
   xmlns:inkscape="http://www.inkscape.org/namespaces/inkscape"
   xmlns:sodipodi="http://sodipodi.sourceforge.net/DTD/sodipodi-0.dtd"
   xmlns="http://www.w3.org/2000/svg"
   xmlns:svg="http://www.w3.org/2000/svg">
  <defs
     id="defs19" />
  <sodipodi:namedview
     id="namedview19"
     pagecolor="#ffffff"
     bordercolor="#000000"
     borderopacity="0.25"
     inkscape:showpageshadow="2"
     inkscape:pageopacity="0.0"
     inkscape:pagecheckerboard="0"
     inkscape:deskcolor="#d1d1d1"
     inkscape:zoom="0.64416667"
     inkscape:cx="599.2238"
     inkscape:cy="600"
     inkscape:window-width="1920"
     inkscape:window-height="991"
     inkscape:window-x="-9"
     inkscape:window-y="-9"
     inkscape:window-maximized="1"
     inkscape:current-layer="svg19" />
  <rect
     width="1200"
     height="1200"
     fill="#F7F0DF"
     id="rect1" />
  <!-- ROOF -->
  <path
     d="M360 405 L600 245 L840 405"
     fill="none"
     stroke="#6B3F20"
     stroke-width="32"
     stroke-linecap="round"
     stroke-linejoin="round"
     id="path1" />
  <!-- CHIMNEY -->
  <path
     d="M716 326 L716 238 L768 238 L768 360 Z"
     fill="#6B3F20"
     id="path2" />
  <!-- FOUR SEPARATE WINDOW PANES -->
  <rect
     x="570"
     y="342"
     width="25"
     height="25"
     rx="2"
     fill="#C9A56A"
     id="rect2" />
  <rect
     x="608"
     y="342"
     width="25"
     height="25"
     rx="2"
     fill="#C9A56A"
     id="rect3" />
  <rect
     x="570"
     y="378"
     width="25"
     height="25"
     rx="2"
     fill="#C9A56A"
     id="rect4" />
  <rect
     x="608"
     y="378"
     width="25"
     height="25"
     rx="2"
     fill="#C9A56A"
     id="rect5" />
  <!-- NATURAL CURLING STEAM -->
  <path
     d="M574 255  C535 218 548 175 583 142  C617 109 628 76 614 42"
     fill="none"
     stroke="#A96F3D"
     stroke-width="22"
     stroke-linecap="round"
     id="path5" />
  <path
     d="M638 265  C612 232 622 198 650 171  C676 146 686 118 677 91"
     fill="none"
     stroke="#A96F3D"
     stroke-width="18"
     stroke-linecap="round"
     id="path6" />
  <!-- CUP -->
  <path
     d="M292 558  Q600 615 908 558  L884 808  Q868 930 600 950  Q332 930 316 808 Z"
     fill="#3F5A35"
     id="path7" />
  <!-- HANDLE -->
  <path
     d="M878 646  C1065 604 1075 833 878 790  L882 730  C978 750 984 670 882 700 Z"
     fill="#3F5A35"
     id="path8" />
  <!-- CUP RIM + COFFEE -->
  <ellipse
     cx="600"
     cy="558"
     rx="309"
     ry="79"
     fill="#F3E4C8"
     id="ellipse8" />
  <ellipse
     cx="600"
     cy="558"
     rx="276"
     ry="55"
     fill="#6B3F20"
     id="ellipse9" />
  <!-- LATTE ART MATCHING THE REFERENCE:
     central heart + broad, low leaves lying naturally on the coffee -->
  <g
     fill="#f3e4c8"
     id="g13"
     transform="matrix(1,0,0,1.2800499,0,-107.88266)">
    <!-- central heart -->
    <path
       d="m 600,526 c -23,-21 -24,-48 -6,-60 9,-6 18,-3 26,5 18,18 6,40 -20,55 z"
       id="path9" />
    <!-- left upper leaf -->
    <path
       d="m 594,530 c -27,-18 -59,-29 -94,-32 19,22 51,37 94,42 z"
       id="path10" />
    <!-- right upper leaf -->
    <path
       d="m 606,530 c 27,-18 59,-29 94,-32 -19,22 -51,37 -94,42 z"
       id="path11" />
    <!-- left lower sweeping leaf -->
    <path
       d="m 595,544 c -38,-13 -80,-20 -121,-18 31,22 72,32 121,31 z"
       id="path12" />
    <!-- right lower sweeping leaf -->
    <path
       d="m 605,544 c 38,-13 80,-20 121,-18 -31,22 -72,32 -121,31 z"
       id="path13" />
  </g>
  <!-- subtle central stem -->
  <path
     d="M600 530 C599 541 600 551 600 559"
     fill="none"
     stroke="#F3E4C8"
     stroke-width="7"
     stroke-linecap="round"
     id="path14" />
  <!-- CENTER EMBLEM -->
  <path
     d="M378 750 H477"
     stroke="#F3E4C8"
     stroke-width="8"
     stroke-linecap="round"
     id="path15" />
  <text
     x="540"
     y="812"
     text-anchor="middle"
     font-family="Arial, Helvetica, sans-serif"
     font-size="104"
     font-weight="700"
     fill="#F3E4C8"
     id="text15">B</text>
  <!-- HOUSE SAME VISUAL SIZE AS B -->
  <path
     d="M590 750 L642 704 L694 750 V816 H590 Z"
     fill="#F3E4C8"
     id="path16" />
  <rect
     x="613"
     y="771"
     width="58"
     height="45"
     fill="#3F5A35"
     id="rect16" />
  <rect
     x="622"
     y="780"
     width="16"
     height="16"
     fill="#F3E4C8"
     id="rect17" />
  <rect
     x="647"
     y="780"
     width="16"
     height="16"
     fill="#F3E4C8"
     id="rect18" />
  <path
     d="M710 750 H809"
     stroke="#F3E4C8"
     stroke-width="8"
     stroke-linecap="round"
     id="path18" />
  <!-- WORDMARK -->
  <text
     x="600"
     y="1035"
     text-anchor="middle"
     font-family="Arial, Helvetica, sans-serif"
     font-size="70"
     font-weight="700"
     letter-spacing="8"
     fill="#3F5A35"
     id="text18">BE HOME</text>
  <text
     x="600"
     y="1090"
     text-anchor="middle"
     font-family="Arial, Helvetica, sans-serif"
     font-size="26"
     font-weight="500"
     letter-spacing="8"
     fill="#A06C3C"
     id="text19">— COFFEE &amp; MORE —</text>
</svg>
